# xmcd CD database file
#
# Track frame offsets:
#	150
#	35789
#	69798
#	101873
#	131549
#	171208
#	204580
#	242735
#	271620
#	297445
#
# Disc length: 4410 seconds
#
# Revision: 5
# Processed by: cddbd v1.5.2PL0 Copyright (c) Steve Scherf et al.
# Submitted via: CDex 1.51
#
DISCID=9211380a
DTITLE=Patricia Cornwell - 10 - Blinder Passagier CD04
DYEAR=2002
DGENRE=Krimi
TTITLE0=401
TTITLE1=402
TTITLE2=403
TTITLE3=404
TTITLE4=405
TTITLE5=406
TTITLE6=407
TTITLE7=408
TTITLE8=409
TTITLE9=410
EXTD=YEAR: 2002
EXTT0=
EXTT1=
EXTT2=
EXTT3=
EXTT4=
EXTT5=
EXTT6=
EXTT7=
EXTT8=
EXTT9=
PLAYORDER=
